<svg xmlns="http://www.w3.org/2000/svg" viewBox="0 0 64 64">
  <rect width="64" height="64" rx="14" fill="#0f1117"/>
  <!-- Silhouette stylisée : tête, tronc, membres -->
  <circle cx="32" cy="17" r="7.5" fill="#e8a87c"/>
  <path d="M32 26c-7 0-12 4-12 10v11c0 2 1.5 3.5 3.5 3.5h1.5v8c0 1.6 1.3 3 3 3s3-1.4 3-3v-8h2v8c0 1.6 1.3 3 3 3s3-1.4 3-3v-8h1.5c2 0 3.5-1.5 3.5-3.5V36c0-6-5-10-12-10z" fill="#e8a87c" opacity=".55"/>
  <!-- Cœur : marqueur anatomique -->
  <path d="M32 40c-3.4-3-6.2-5-6.2-8 0-2 1.5-3.4 3.3-3.4 1.2 0 2.3.6 2.9 1.6.6-1 1.7-1.6 2.9-1.6 1.8 0 3.3 1.4 3.3 3.4 0 3-2.8 5-6.2 8z" fill="#7ecfa8"/>
</svg>
